<svg width="275" height="70" viewBox="0 0 275 70" fill="none" xmlns="http://www.w3.org/2000/svg">
<path d="M19.8653 68.9282H0L33.6386 0.929668H58.8013L69.9259 68.9282H50.0606L43.4388 19.6558H42.9091L19.8653 68.9282ZM20.6599 42.1007H58.0067L55.6229 55.9129H18.2761L20.6599 42.1007Z" fill="black"/>
<path d="M128.215 26.4291H109.541C109.409 24.8797 109.055 23.4741 108.482 22.2124C107.93 20.9507 107.157 19.8661 106.164 18.9586C105.193 18.0289 104.012 17.3206 102.621 16.8336C101.231 16.3245 99.6526 16.07 97.8868 16.07C94.7966 16.07 92.181 16.8226 90.04 18.3277C87.921 19.8329 86.3097 21.9911 85.2061 24.8022C84.1245 27.6134 83.5837 30.9889 83.5837 34.929C83.5837 39.0903 84.1356 42.5766 85.2392 45.3877C86.3649 48.1767 87.9872 50.2795 90.1062 51.6962C92.2251 53.0907 94.7745 53.7879 97.7543 53.7879C99.4539 53.7879 100.977 53.5776 102.323 53.1571C103.67 52.7144 104.84 52.0835 105.833 51.2645C106.826 50.4456 107.632 49.4605 108.25 48.3095C108.89 47.1364 109.32 45.8193 109.541 44.3584L128.215 44.4912C127.994 47.3688 127.188 50.3017 125.798 53.2899C124.407 56.256 122.431 59.0007 119.871 61.5241C117.333 64.0253 114.187 66.0396 110.435 67.5669C106.683 69.0942 102.323 69.8579 97.357 69.8579C91.1326 69.8579 85.5482 68.5187 80.6039 65.8404C75.6818 63.1621 71.7859 59.2221 68.9165 54.0203C66.0692 48.8186 64.6455 42.4548 64.6455 34.929C64.6455 27.3588 66.1023 20.9839 69.0158 15.8044C71.9294 10.6026 75.8583 6.67369 80.8026 4.01749C85.7468 1.33916 91.265 0 97.357 0C101.639 0 105.579 0.586575 109.177 1.75973C112.775 2.93288 115.931 4.64834 118.646 6.9061C121.361 9.14173 123.546 11.8975 125.202 15.1735C126.857 18.4495 127.861 22.2014 128.215 26.4291Z" fill="black"/>
<path d="M152.137 68.9282H126.047V0.929668H151.872C158.847 0.929668 164.873 2.29097 169.95 5.01357C175.048 7.71403 178.977 11.6098 181.736 16.7008C184.517 21.7697 185.908 27.8458 185.908 34.929C185.908 42.0121 184.528 48.0992 181.769 53.1903C179.01 58.2592 175.104 62.1549 170.049 64.8775C164.994 67.578 159.024 68.9282 152.137 68.9282ZM144.456 53.2567H151.475C154.83 53.2567 157.688 52.7144 160.05 51.6298C162.434 50.5452 164.244 48.6748 165.48 46.0186C166.738 43.3624 167.367 39.6658 167.367 34.929C167.367 30.1921 166.727 26.4955 165.447 23.8393C164.189 21.1831 162.334 19.3127 159.884 18.2281C157.456 17.1435 154.477 16.6012 150.945 16.6012H144.456V53.2567Z" fill="black"/>
<path d="M196.174 68.9282L176.177 0.929668H196.704L205.975 42.7647H206.504L217.496 0.929668H233.654L244.646 42.8975H245.176L254.446 0.929668H274.973L254.976 68.9282H237.362L225.84 30.9447H225.31L213.788 68.9282H196.174Z" fill="black"/>
</svg>
