<svg width="154" height="75" viewBox="0 0 154 75" fill="none" xmlns="http://www.w3.org/2000/svg">
<path fill-rule="evenodd" clip-rule="evenodd" d="M76.438 0.0325012C76.5483 0.0322571 76.6586 0.032135 76.7688 0.032135C86.1802 0.032135 95.5106 0.942871 104.23 2.71857C112.945 4.49341 120.914 7.10495 127.667 10.43C133.761 13.4308 138.826 16.9934 142.545 21H10.9928C14.712 16.9934 19.7762 13.4308 25.8706 10.43C32.6238 7.10495 40.593 4.49341 49.308 2.71857C57.5602 1.03796 66.36 0.132141 75.2578 0.0399475C75.5804 0.0347595 75.9031 0.032135 76.2261 0.032135C76.2968 0.032135 76.3674 0.0322571 76.438 0.0325012ZM25.8706 63.8093C19.6551 60.7489 14.5112 57.1041 10.7727 53H142.765C139.026 57.1041 133.883 60.7489 127.667 63.8093C120.914 67.1344 112.945 69.7459 104.23 71.5208C95.5106 73.2964 86.1802 74.2072 76.7688 74.2072C76.6586 74.2072 76.5483 74.2071 76.438 74.2068C76.3674 74.2071 76.2968 74.2072 76.2261 74.2072C75.9031 74.2072 75.5804 74.2046 75.2578 74.1993C66.36 74.1072 57.5602 73.2014 49.308 71.5208C40.593 69.7459 32.6238 67.1344 25.8706 63.8093ZM46.2405 8.52283C39.4797 10.1595 33.3442 12.3235 28.0793 14.9158C26.6932 15.5982 25.3775 16.3054 24.134 17.0344L36.6995 17.0029C38.5622 14.7172 40.7379 12.6039 43.1846 10.6999C44.1646 9.93732 45.1843 9.21112 46.2405 8.52283ZM78.7711 16.8974L108.75 16.8222C107.945 16.0703 107.094 15.344 106.197 14.6459C102.316 11.6262 97.6721 9.20642 92.5198 7.54803C88.2068 6.15985 83.6226 5.33264 78.9564 5.1001L78.7711 16.8974ZM115.59 16.8051L128.951 16.7716C127.842 16.1352 126.677 15.5159 125.458 14.9158C119.753 12.1066 113.025 9.80045 105.588 8.12329C106.867 8.92844 108.096 9.78815 109.268 10.6999C111.643 12.5488 113.764 14.5952 115.59 16.8051ZM43.5288 16.9857L73.7703 16.9099L73.9561 5.0791C69.131 5.2789 64.3871 6.11423 59.9324 7.54803C54.78 9.20642 50.1358 11.6262 46.2553 14.6459C45.2933 15.3944 44.3839 16.1755 43.5288 16.9857ZM37.1075 57.7285L25.0998 57.7586C26.0534 58.2932 27.0468 58.8152 28.0793 59.3235C33.3442 61.9159 39.4797 64.0799 46.2405 65.7165C45.1843 65.0282 44.1646 64.302 43.1846 63.5394C40.9144 61.7728 38.8776 59.826 37.1075 57.7285ZM44.0209 57.7111L73.1306 57.6382L72.9505 69.1093C68.4725 68.8413 64.0772 68.0254 59.9324 66.6913C54.78 65.0329 50.1358 62.6131 46.2553 59.5934C45.4757 58.9868 44.7305 58.3587 44.0209 57.7111ZM78.1315 57.6256L77.95 69.1801C82.963 69.0226 87.8971 68.1791 92.5198 66.6913C97.6721 65.0329 102.316 62.6131 106.197 59.5934C107.041 58.9363 107.845 58.2541 108.608 57.5492L78.1315 57.6256ZM115.509 57.5319C113.701 59.7045 111.608 61.7178 109.268 63.5394C108.096 64.4512 106.867 65.3109 105.588 66.116C113.025 64.4389 119.753 62.1327 125.458 59.3235C126.658 58.733 127.804 58.124 128.897 57.4983L115.509 57.5319ZM36.0259 50.5537H27.8536L25.4169 45.1929H10.6091L8.17236 50.5537H0L13.2708 23.9372H22.7552L36.0259 50.5537ZM15.4825 34.5838L12.8584 40.3195H23.1676L20.5434 34.5838C19.2313 31.8472 18.5566 30.3477 18.0692 28.4358H17.9567C17.4694 30.3477 16.7946 31.8472 15.4825 34.5838ZM68.8081 41.9689C66.6338 48.042 60.5607 51.4909 51.9013 51.4909C41.2172 51.4909 34.4694 45.9427 34.4694 37.3579C34.4694 28.8856 41.7045 23 52.2012 23C60.8607 23 67.1212 26.7488 68.8831 33.0093L61.0106 34.3964C59.9984 30.7225 56.9244 28.7732 52.1262 28.7732C46.1281 28.7732 42.4543 32.0346 42.4543 37.2455C42.4543 42.4188 46.2031 45.7177 52.2012 45.7177C56.9244 45.7177 59.9609 43.8433 61.0856 40.3195L68.8081 41.9689ZM88.9335 50.5537H72.1763V23.9372H89.0834C98.8678 23.9372 105.128 28.4732 105.128 36.7956C105.128 45.0804 98.4929 50.5537 88.9335 50.5537ZM79.7489 29.0731V45.4178H87.9588C93.6569 45.4178 97.1058 42.2688 97.1058 36.9455C97.1058 31.7347 93.3571 29.0731 87.9213 29.0731H79.7489ZM122 50.5537H113.34L104.118 23.9372H111.841L117.127 41.1442C117.178 41.342 117.234 41.5398 117.289 41.7372C117.475 42.4001 117.66 43.0579 117.689 43.6934H117.839C117.911 42.9028 118.224 42.0434 118.514 41.2471L118.551 41.1442L124.924 23.9372H132.834L139.17 41.1442C139.214 41.2658 139.26 41.3891 139.306 41.5135C139.574 42.2326 139.856 42.9903 139.919 43.6934H140.069C140.107 42.8687 140.369 42.0064 140.632 41.1442L145.917 23.9372H153.603L144.418 50.5537H135.758L129.535 33.5716C129.273 32.8219 129.01 31.9596 128.973 31.2474H128.786C128.748 31.9596 128.486 32.8219 128.223 33.5716L122 50.5537Z" fill="black"/>
</svg>
