<svg width="338" height="10" viewBox="0 0 338 10" fill="none" xmlns="http://www.w3.org/2000/svg">
<path d="M9.59198 8.99999H12.208L7.96002 0.479993H4.92401L0.676025 8.99999H3.29199L4.07202 7.28399H8.81201L9.59198 8.99999ZM4.79199 5.72399L5.63202 3.88799C6.05202 3.01199 6.26801 2.53199 6.42401 1.91999H6.46002C6.61602 2.53199 6.83201 3.01199 7.25201 3.88799L8.09198 5.72399H4.79199ZM21.55 8.99999H24.286L22.066 5.71199C23.494 5.24399 23.974 4.12799 23.974 3.17999C23.974 1.88399 23.182 0.479993 20.446 0.479993H14.638V8.99999H17.062V5.98799H19.522L21.55 8.99999ZM17.062 2.09999H19.894C21.058 2.09999 21.406 2.66399 21.406 3.25199C21.406 3.85199 21.058 4.43999 19.894 4.43999H17.062V2.09999ZM31.581 9.29999C34.353 9.29999 36.297 8.19599 36.993 6.25199L34.521 5.72399C34.161 6.85199 33.189 7.45199 31.677 7.45199C29.757 7.45199 28.557 6.39599 28.557 4.73999C28.557 3.07199 29.733 2.02799 31.653 2.02799C33.189 2.02799 34.173 2.65199 34.497 3.82799L37.017 3.38399C36.453 1.37999 34.449 0.179993 31.677 0.179993C28.317 0.179993 26.001 2.06399 26.001 4.77599C26.001 7.52399 28.161 9.29999 31.581 9.29999ZM49.603 0.479993H47.167V3.83999H42.055V0.479993H39.631V8.99999H42.055V5.53199H47.167V8.99999H49.603V0.479993ZM55.431 7.29599V5.47199H61.407V3.88799H55.431V2.18399H61.611V0.479993H53.007V8.99999H61.695V7.29599H55.431ZM71.678 8.99999H74.414L72.194 5.71199C73.622 5.24399 74.102 4.12799 74.102 3.17999C74.102 1.88399 73.31 0.479993 70.574 0.479993H64.766V8.99999H67.19V5.98799H69.65L71.678 8.99999ZM67.19 2.09999H70.022C71.186 2.09999 71.534 2.66399 71.534 3.25199C71.534 3.85199 71.186 4.43999 70.022 4.43999H67.19V2.09999ZM87.796 9.29999C90.568 9.29999 92.512 8.19599 93.208 6.25199L90.736 5.72399C90.376 6.85199 89.404 7.45199 87.892 7.45199C85.972 7.45199 84.772 6.39599 84.772 4.73999C84.772 3.07199 85.948 2.02799 87.868 2.02799C89.404 2.02799 90.388 2.65199 90.712 3.82799L93.232 3.38399C92.668 1.37999 90.664 0.179993 87.892 0.179993C84.532 0.179993 82.216 2.06399 82.216 4.77599C82.216 7.52399 84.376 9.29999 87.796 9.29999ZM100.964 9.29999C104.42 9.29999 106.676 7.51199 106.676 4.73999C106.676 1.96799 104.42 0.179993 100.964 0.179993C97.496 0.179993 95.252 1.96799 95.252 4.73999C95.252 7.49999 97.496 9.29999 100.964 9.29999ZM100.964 7.49999C99.068 7.49999 97.808 6.38399 97.808 4.73999C97.808 3.08399 99.068 1.97999 100.964 1.97999C102.848 1.97999 104.108 3.08399 104.108 4.73999C104.108 6.39599 102.848 7.49999 100.964 7.49999ZM114.539 9.29999C117.995 9.29999 120.251 7.51199 120.251 4.73999C120.251 1.96799 117.995 0.179993 114.539 0.179993C111.071 0.179993 108.827 1.96799 108.827 4.73999C108.827 7.49999 111.071 9.29999 114.539 9.29999ZM114.539 7.49999C112.643 7.49999 111.383 6.38399 111.383 4.73999C111.383 3.08399 112.643 1.97999 114.539 1.97999C116.423 1.97999 117.683 3.08399 117.683 4.73999C117.683 6.39599 116.423 7.49999 114.539 7.49999ZM128.581 0.479993H122.797V8.99999H125.221V6.29999H128.533C130.729 6.29999 132.145 5.13599 132.145 3.31199C132.145 1.54799 130.813 0.479993 128.581 0.479993ZM127.981 4.66799H125.221V2.11199H127.993C129.013 2.11199 129.589 2.55599 129.589 3.37199C129.589 4.19999 128.989 4.66799 127.981 4.66799ZM137.062 7.29599V5.47199H143.038V3.88799H137.062V2.18399H143.242V0.479993H134.638V8.99999H143.326V7.29599H137.062ZM153.308 8.99999H156.044L153.824 5.71199C155.252 5.24399 155.732 4.12799 155.732 3.17999C155.732 1.88399 154.94 0.479993 152.204 0.479993H146.396V8.99999H148.82V5.98799H151.28L153.308 8.99999ZM148.82 2.09999H151.652C152.816 2.09999 153.164 2.66399 153.164 3.25199C153.164 3.85199 152.816 4.43999 151.652 4.43999H148.82V2.09999ZM164.699 8.99999H170.063C173.123 8.99999 175.247 7.24799 175.247 4.59599C175.247 1.93199 173.243 0.479993 170.111 0.479993H164.699V8.99999ZM167.123 7.35599V2.12399H169.739C171.479 2.12399 172.679 2.97599 172.679 4.64399C172.679 6.34799 171.575 7.35599 169.751 7.35599H167.123ZM184.717 8.99999H187.453L185.233 5.71199C186.661 5.24399 187.141 4.12799 187.141 3.17999C187.141 1.88399 186.349 0.479993 183.613 0.479993H177.805V8.99999H180.229V5.98799H182.689L184.717 8.99999ZM180.229 2.09999H183.061C184.225 2.09999 184.573 2.66399 184.573 3.25199C184.573 3.85199 184.225 4.43999 183.061 4.43999H180.229V2.09999ZM198.187 8.99999H200.803L196.555 0.479993H193.519L189.271 8.99999H191.887L192.667 7.28399H197.407L198.187 8.99999ZM193.387 5.72399L194.227 3.88799C194.647 3.01199 194.863 2.53199 195.019 1.91999H195.055C195.211 2.53199 195.427 3.01199 195.847 3.88799L196.687 5.72399H193.387ZM209.016 0.479993H203.232V8.99999H205.656V6.29999H208.968C211.164 6.29999 212.58 5.13599 212.58 3.31199C212.58 1.54799 211.248 0.479993 209.016 0.479993ZM208.416 4.66799H205.656V2.11199H208.428C209.448 2.11199 210.024 2.55599 210.024 3.37199C210.024 4.19999 209.424 4.66799 208.416 4.66799ZM217.497 7.29599V5.47199H223.473V3.88799H217.497V2.18399H223.677V0.479993H215.073V8.99999H223.761V7.29599H217.497ZM233.743 8.99999H236.479L234.259 5.71199C235.687 5.24399 236.167 4.12799 236.167 3.17999C236.167 1.88399 235.375 0.479993 232.639 0.479993H226.831V8.99999H229.255V5.98799H231.715L233.743 8.99999ZM229.255 2.09999H232.087C233.251 2.09999 233.599 2.66399 233.599 3.25199C233.599 3.85199 233.251 4.43999 232.087 4.43999H229.255V2.09999ZM246.67 8.99999H249.442L251.434 3.56399C251.518 3.32399 251.602 3.04799 251.614 2.81999H251.674C251.686 3.04799 251.77 3.32399 251.854 3.56399L253.846 8.99999H256.618L259.558 0.479993H257.098L255.406 5.98799C255.322 6.26399 255.238 6.53999 255.226 6.80399H255.178C255.154 6.53999 255.034 6.25199 254.938 5.98799L252.91 0.479993H250.378L248.338 5.98799C248.242 6.25199 248.134 6.53999 248.11 6.80399H248.062C248.05 6.53999 247.954 6.26399 247.882 5.98799L246.19 0.479993H243.718L246.67 8.99999ZM272.067 0.479993H269.631V3.83999H264.519V0.479993H262.095V8.99999H264.519V5.53199H269.631V8.99999H272.067V0.479993ZM277.895 8.99999V0.479993H275.471V8.99999H277.895ZM289.82 0.479993H280.316V2.36399H283.856V8.99999H286.28V2.36399H289.82V0.479993ZM298.518 8.99999H301.134L296.886 0.479993H293.85L289.602 8.99999H292.218L292.998 7.28399H297.738L298.518 8.99999ZM293.718 5.72399L294.558 3.88799C294.978 3.01199 295.194 2.53199 295.35 1.91999H295.386C295.542 2.53199 295.758 3.01199 296.178 3.88799L297.018 5.72399H293.718ZM310.907 8.99999H313.727L309.731 3.73199L309.755 3.71999L313.511 0.479993H310.523L305.987 4.43999V0.479993H303.563V8.99999H305.987V6.83999L307.907 5.12399L310.907 8.99999ZM318.66 7.29599V5.47199H324.636V3.88799H318.66V2.18399H324.84V0.479993H316.236V8.99999H324.924V7.29599H318.66ZM334.907 8.99999H337.64L335.423 5.71199C336.85 5.24399 337.33 4.12799 337.33 3.17999C337.33 1.88399 336.54 0.479993 333.803 0.479993H327.995V8.99999H330.419V5.98799H332.879L334.907 8.99999ZM330.419 2.09999H333.251C334.415 2.09999 334.763 2.66399 334.763 3.25199C334.763 3.85199 334.415 4.43999 333.251 4.43999H330.419V2.09999Z" fill="#EF9A9A"/>
</svg>
