<svg width="332" height="10" viewBox="0 0 332 10" fill="none" xmlns="http://www.w3.org/2000/svg">
<path d="M5.364 9.29999C8.448 9.29999 10.2 8.24399 10.2 6.34799C10.2 4.77599 9.228 4.07999 6.876 3.83999L4.536 3.59999C3.444 3.49199 3.096 3.28799 3.096 2.77199C3.096 2.18399 3.804 1.87199 5.124 1.87199C6.756 1.87199 7.98 2.37599 8.604 3.22799L10.14 1.94399C9.072 0.743993 7.392 0.179993 5.244 0.179993C2.328 0.179993 0.672 1.18799 0.672 2.87999C0.672 4.45199 1.692 5.21999 3.768 5.44799L6.384 5.73599C7.392 5.84399 7.752 6.05999 7.752 6.58799C7.752 7.25999 7.032 7.58399 5.484 7.58399C3.744 7.58399 2.436 6.89999 1.728 5.90399L0 7.11599C0.876 8.45999 2.844 9.29999 5.364 9.29999ZM22.8698 0.479993H20.4338V3.83999H15.3217V0.479993H12.8977V8.99999H15.3217V5.53199H20.4338V8.99999H22.8698V0.479993ZM31.1335 9.29999C34.5895 9.29999 36.8455 7.51199 36.8455 4.73999C36.8455 1.96799 34.5895 0.179993 31.1335 0.179993C27.6655 0.179993 25.4215 1.96799 25.4215 4.73999C25.4215 7.49999 27.6655 9.29999 31.1335 9.29999ZM31.1335 7.49999C29.2375 7.49999 27.9775 6.38399 27.9775 4.73999C27.9775 3.08399 29.2375 1.97999 31.1335 1.97999C33.0175 1.97999 34.2775 3.08399 34.2775 4.73999C34.2775 6.39599 33.0175 7.49999 31.1335 7.49999ZM45.1755 0.479993H39.3915V8.99999H41.8155V6.29999H45.1275C47.3235 6.29999 48.7395 5.13599 48.7395 3.31199C48.7395 1.54799 47.4075 0.479993 45.1755 0.479993ZM44.5755 4.66799H41.8155V2.11199H44.5875C45.6075 2.11199 46.1835 2.55599 46.1835 3.37199C46.1835 4.19999 45.5835 4.66799 44.5755 4.66799ZM53.6561 8.99999V0.479993H51.2321V8.99999H53.6561ZM65.665 2.21999V0.479993H57.061V8.99999H59.485V5.67599H65.461V3.97199H59.485V2.21999H65.665ZM71.7736 8.99999H74.1976V6.09599L78.4816 0.479993H75.8656L73.3216 3.93599C73.1296 4.18799 73.0816 4.29599 73.0456 4.41599H73.0216C72.9856 4.29599 72.9256 4.18799 72.7336 3.93599L70.2736 0.479993H67.5136L71.7736 6.09599V8.99999ZM90.3148 9.29999C93.0868 9.29999 95.0308 8.19599 95.7268 6.25199L93.2548 5.72399C92.8948 6.85199 91.9228 7.45199 90.4108 7.45199C88.4908 7.45199 87.2908 6.39599 87.2908 4.73999C87.2908 3.07199 88.4668 2.02799 90.3868 2.02799C91.9228 2.02799 92.9068 2.65199 93.2308 3.82799L95.7508 3.38399C95.1868 1.37999 93.1828 0.179993 90.4108 0.179993C87.0508 0.179993 84.7348 2.06399 84.7348 4.77599C84.7348 7.52399 86.8948 9.29999 90.3148 9.29999ZM103.483 9.29999C106.939 9.29999 109.195 7.51199 109.195 4.73999C109.195 1.96799 106.939 0.179993 103.483 0.179993C100.015 0.179993 97.7708 1.96799 97.7708 4.73999C97.7708 7.49999 100.015 9.29999 103.483 9.29999ZM103.483 7.49999C101.587 7.49999 100.327 6.38399 100.327 4.73999C100.327 3.08399 101.587 1.97999 103.483 1.97999C105.367 1.97999 106.627 3.08399 106.627 4.73999C106.627 6.39599 105.367 7.49999 103.483 7.49999ZM111.741 8.99999H113.937V4.33199V3.14399H113.985C114.117 3.41999 114.441 3.85199 114.669 4.11599L119.265 8.99999H121.677V0.479993H119.481V5.05199V6.27599H119.433C119.277 5.93999 119.037 5.65199 118.761 5.31599L114.333 0.479993H111.741V8.99999ZM129.341 9.29999C132.425 9.29999 134.177 8.24399 134.177 6.34799C134.177 4.77599 133.205 4.07999 130.853 3.83999L128.513 3.59999C127.421 3.49199 127.073 3.28799 127.073 2.77199C127.073 2.18399 127.781 1.87199 129.101 1.87199C130.733 1.87199 131.957 2.37599 132.581 3.22799L134.117 1.94399C133.049 0.743993 131.369 0.179993 129.221 0.179993C126.305 0.179993 124.649 1.18799 124.649 2.87999C124.649 4.45199 125.669 5.21999 127.745 5.44799L130.361 5.73599C131.369 5.84399 131.729 6.05999 131.729 6.58799C131.729 7.25999 131.009 7.58399 129.461 7.58399C127.721 7.58399 126.413 6.89999 125.705 5.90399L123.977 7.11599C124.853 8.45999 126.821 9.29999 129.341 9.29999ZM136.527 0.479993V5.15999C136.527 7.63199 138.315 9.29999 141.543 9.29999C144.759 9.29999 146.535 7.64399 146.535 5.18399V0.479993H144.111V4.93199C144.111 6.37199 143.163 7.39199 141.543 7.39199C139.863 7.39199 138.963 6.37199 138.963 4.93199V0.479993H136.527ZM149.606 8.99999H157.802V7.10399H152.03V0.479993H149.606V8.99999ZM167.084 0.479993H157.58V2.36399H161.12V8.99999H163.544V2.36399H167.084V0.479993ZM171.926 8.99999V0.479993H169.502V8.99999H171.926ZM175.331 8.99999H177.527V4.33199V3.14399H177.575C177.707 3.41999 178.031 3.85199 178.259 4.11599L182.855 8.99999H185.267V0.479993H183.071V5.05199V6.27599H183.023C182.867 5.93999 182.627 5.65199 182.351 5.31599L177.923 0.479993H175.331V8.99999ZM192.824 9.29999C194.984 9.29999 196.184 8.42399 196.712 7.53599L196.82 8.99999H198.68V4.24799H193.208V5.74799H196.424V5.78399C196.352 6.73199 195.284 7.59599 193.436 7.59599C191.492 7.59599 190.364 6.47999 190.364 4.81199C190.364 3.05999 191.48 1.94399 193.412 1.94399C194.864 1.94399 195.752 2.56799 196.064 3.40799L198.692 2.97599C198.176 1.24799 196.172 0.179993 193.484 0.179993C189.992 0.179993 187.82 2.15999 187.82 4.83599C187.82 7.41599 189.692 9.29999 192.824 9.29999ZM213.45 0.479993H207.666V8.99999H210.09V6.29999H213.402C215.598 6.29999 217.014 5.13599 217.014 3.31199C217.014 1.54799 215.682 0.479993 213.45 0.479993ZM212.85 4.66799H210.09V2.11199H212.862C213.882 2.11199 214.458 2.55599 214.458 3.37199C214.458 4.19999 213.858 4.66799 212.85 4.66799ZM226.231 8.99999H228.847L224.599 0.479993H221.563L217.315 8.99999H219.931L220.711 7.28399H225.451L226.231 8.99999ZM221.431 5.72399L222.271 3.88799C222.691 3.01199 222.907 2.53199 223.063 1.91999H223.099C223.255 2.53199 223.471 3.01199 223.891 3.88799L224.731 5.72399H221.431ZM238.189 8.99999H240.925L238.705 5.71199C240.133 5.24399 240.613 4.12799 240.613 3.17999C240.613 1.88399 239.821 0.479993 237.085 0.479993H231.277V8.99999H233.701V5.98799H236.161L238.189 8.99999ZM233.701 2.09999H236.533C237.697 2.09999 238.045 2.66399 238.045 3.25199C238.045 3.85199 237.697 4.43999 236.533 4.43999H233.701V2.09999ZM251.907 0.479993H242.403V2.36399H245.943V8.99999H248.367V2.36399H251.907V0.479993ZM254.325 8.99999H256.521V4.33199V3.14399H256.569C256.701 3.41999 257.025 3.85199 257.253 4.11599L261.849 8.99999H264.261V0.479993H262.065V5.05199V6.27599H262.017C261.861 5.93999 261.621 5.65199 261.345 5.31599L256.917 0.479993H254.325V8.99999ZM270.09 7.29599V5.47199H276.066V3.88799H270.09V2.18399H276.27V0.479993H267.666V8.99999H276.354V7.29599H270.09ZM286.336 8.99999H289.072L286.852 5.71199C288.28 5.24399 288.76 4.12799 288.76 3.17999C288.76 1.88399 287.968 0.479993 285.232 0.479993H279.424V8.99999H281.848V5.98799H284.308L286.336 8.99999ZM281.848 2.09999H284.68C285.844 2.09999 286.192 2.66399 286.192 3.25199C286.192 3.85199 285.844 4.43999 284.68 4.43999H281.848V2.09999ZM295.771 9.29999C298.855 9.29999 300.607 8.24399 300.607 6.34799C300.607 4.77599 299.635 4.07999 297.283 3.83999L294.943 3.59999C293.851 3.49199 293.503 3.28799 293.503 2.77199C293.503 2.18399 294.211 1.87199 295.531 1.87199C297.163 1.87199 298.387 2.37599 299.011 3.22799L300.547 1.94399C299.479 0.743993 297.799 0.179993 295.651 0.179993C292.735 0.179993 291.079 1.18799 291.079 2.87999C291.079 4.45199 292.099 5.21999 294.175 5.44799L296.791 5.73599C297.799 5.84399 298.159 6.05999 298.159 6.58799C298.159 7.25999 297.439 7.58399 295.891 7.58399C294.151 7.58399 292.843 6.89999 292.135 5.90399L290.407 7.11599C291.283 8.45999 293.251 9.29999 295.771 9.29999ZM313.277 0.479993H310.841V3.83999H305.729V0.479993H303.305V8.99999H305.729V5.53199H310.841V8.99999H313.277V0.479993ZM319.105 8.99999V0.479993H316.681V8.99999H319.105ZM328.293 0.479993H322.509V8.99999H324.933V6.29999H328.245C330.441 6.29999 331.857 5.13599 331.857 3.31199C331.857 1.54799 330.525 0.479993 328.293 0.479993ZM327.693 4.66799H324.933V2.11199H327.705C328.725 2.11199 329.301 2.55599 329.301 3.37199C329.301 4.19999 328.701 4.66799 327.693 4.66799Z" fill="#EF9A9A"/>
</svg>
